<svg width="858" height="868" viewBox="0 0 858 868" fill="none" xmlns="http://www.w3.org/2000/svg">
<path d="M429.008 29C208.081 29 29 210.318 29 433.995C29 657.683 208.081 839 429.008 839C649.895 839 829 657.683 829 433.995C829 210.318 649.895 29 429.008 29Z" fill="#E6E9ED"/>
<path d="M362.331 113.368C371.536 113.368 379.006 120.919 379.006 130.24C379.006 139.571 371.536 147.122 362.331 147.122C353.127 147.122 345.658 139.571 345.658 130.24C345.656 120.921 353.127 113.368 362.331 113.368Z" fill="#CCD1D9"/>
<path d="M379.006 163.995C415.823 163.995 445.647 194.213 445.647 231.491C445.647 268.782 415.823 298.999 379.006 298.999C342.189 298.999 312.331 268.781 312.331 231.491C312.331 194.213 342.189 163.995 379.006 163.995Z" fill="#CCD1D9"/>
<path d="M112.327 467.761C103.123 467.761 95.6516 460.198 95.6516 450.877C95.6516 441.557 103.123 433.995 112.327 433.995C121.531 433.995 129.002 441.559 129.002 450.877C129.002 460.198 121.531 467.761 112.327 467.761Z" fill="#CCD1D9"/>
<path d="M195.655 484.62C168.042 484.62 145.653 461.978 145.653 433.995C145.653 406.036 168.042 383.37 195.655 383.37C223.292 383.37 245.655 406.038 245.655 433.995C245.655 461.978 223.291 484.62 195.655 484.62Z" fill="#CCD1D9"/>
<path d="M195.655 197.749C195.655 169.791 218.044 147.122 245.655 147.122C273.292 147.122 295.656 169.791 295.656 197.749C295.656 225.707 273.292 248.374 245.655 248.374C218.042 248.376 195.655 225.707 195.655 197.749Z" fill="#CCD1D9"/>
<path d="M295.656 552.13C295.656 561.45 288.209 569.014 279.006 569.014C269.802 569.014 262.331 561.45 262.331 552.13C262.331 542.811 269.802 535.245 279.006 535.245C288.209 535.245 295.656 542.811 295.656 552.13Z" fill="#CCD1D9"/>
<path d="M329.005 737.75C292.189 737.75 262.33 707.541 262.33 670.265C262.33 632.988 292.189 602.755 329.005 602.755C365.82 602.755 395.656 632.986 395.656 670.265C395.656 707.541 365.822 737.75 329.005 737.75Z" fill="#CCD1D9"/>
<path d="M412.331 659.708C412.331 631.751 434.72 609.083 462.344 609.083C489.933 609.083 512.347 631.751 512.347 659.708C512.347 687.668 489.933 710.337 462.344 710.337C434.719 710.337 412.331 687.668 412.331 659.708Z" fill="#CCD1D9"/>
<path d="M512.347 771.515C503.117 771.515 495.647 763.953 495.647 754.633C495.647 745.312 503.116 737.75 512.347 737.75C521.527 737.75 528.995 745.312 528.995 754.633C528.995 763.952 521.527 771.515 512.347 771.515Z" fill="#CCD1D9"/>
<path d="M528.995 197.749C528.995 160.472 558.831 130.24 595.647 130.24C632.512 130.24 662.347 160.472 662.347 197.749C662.347 235.026 632.511 265.245 595.647 265.245C558.831 265.245 528.995 235.026 528.995 197.749Z" fill="#CCD1D9"/>
<path d="M595.647 315.873C586.467 315.873 578.997 308.32 578.997 299.001C578.997 289.682 586.467 282.119 595.647 282.119C604.875 282.119 612.347 289.682 612.347 299.001C612.348 308.32 604.877 315.873 595.647 315.873Z" fill="#CCD1D9"/>
<path d="M678.997 636.497C651.411 636.497 628.997 613.855 628.997 585.872C628.997 557.913 651.411 535.245 678.997 535.245C706.634 535.245 729 557.913 729 585.872C729 613.855 706.634 636.497 678.997 636.497Z" fill="#CCD1D9"/>
<path d="M712.348 518.389C684.711 518.389 662.348 495.694 662.348 467.761C662.348 439.79 684.711 417.123 712.348 417.123C739.937 417.123 762.348 439.792 762.348 467.761C762.348 495.694 739.937 518.389 712.348 518.389Z" fill="#CCD1D9"/>
</svg>
