<svg width="886" height="886" viewBox="0 0 886 886" fill="none" xmlns="http://www.w3.org/2000/svg">
<path d="M843 445.5C843 665.018 663.944 843 443.006 843C222.079 843 43 665.018 43 445.5C43 225.957 222.079 48 443.006 48C663.944 48 843 225.957 843 445.5Z" fill="#5D9CEC"/>
<path d="M493.006 243H96.5219C90.2719 253.791 84.5094 264.923 79.2859 276.325H493.006C502.211 276.325 509.681 268.855 509.681 259.65C509.681 250.445 502.211 243 493.006 243Z" fill="#4A89DC"/>
<path d="M767.945 676.325H459.681C450.477 676.325 443.006 683.795 443.006 693C443.006 702.205 450.477 709.65 459.681 709.65H741.139C750.659 699.055 759.595 687.922 767.945 676.325Z" fill="#4A89DC"/>
<path d="M276.331 576.325H65.7594C69.7875 587.678 74.3047 598.811 79.2844 609.65H276.33C285.534 609.65 293.005 602.203 293.005 593C293.005 583.797 285.536 576.325 276.331 576.325Z" fill="#4A89DC"/>
<path d="M609.681 459.65C609.681 468.855 617.128 476.325 626.331 476.325H841.627C842.555 465.339 842.994 454.23 842.994 443H626.331C617.127 443 609.681 450.447 609.681 459.65Z" fill="#4A89DC"/>
<path d="M159.681 426.325C159.681 417.12 152.211 409.65 143.006 409.65H44.3734C43.4703 420.661 43.0062 431.769 43.0062 443H143.006C152.211 443 159.681 435.53 159.681 426.325Z" fill="#4A89DC"/>
<path d="M326.331 143C335.536 143 343.006 135.53 343.006 126.325C343.006 117.12 335.536 109.65 326.331 109.65H221.839C206.605 119.783 192.103 130.939 178.431 143H326.331Z" fill="#4A89DC"/>
<path d="M576.331 459.65C576.331 487.288 531.58 509.65 476.331 509.65C421.106 509.65 376.331 487.288 376.331 459.65C376.331 432.038 421.106 409.65 476.331 409.65C531.58 409.65 576.331 432.038 576.331 459.65Z" fill="#4A89DC"/>
</svg>
